<?xml version="1.0" encoding="utf-8"?>
<!-- Generator: Adobe Illustrator 22.1.0, SVG Export Plug-In . SVG Version: 6.00 Build 0)  -->
<svg version="1.1"
	 id="svg2" xmlns:cc="http://creativecommons.org/ns#" xmlns:dc="http://purl.org/dc/elements/1.1/" xmlns:inkscape="http://www.inkscape.org/namespaces/inkscape" xmlns:rdf="http://www.w3.org/1999/02/22-rdf-syntax-ns#" xmlns:sodipodi="http://sodipodi.sourceforge.net/DTD/sodipodi-0.dtd" xmlns:svg="http://www.w3.org/2000/svg"
	 xmlns="http://www.w3.org/2000/svg" xmlns:xlink="http://www.w3.org/1999/xlink" x="0px" y="0px" viewBox="0 0 90 90"
	 style="enable-background:new 0 0 90 90;" xml:space="preserve">
<style type="text/css">
	.st0{fill:#F24E4E;}
	
		.st1{opacity:0.99;fill:none;stroke:#FFFFFF;stroke-width:4.9941;stroke-linecap:round;stroke-linejoin:round;enable-background:new    ;}
	
		.st2{opacity:0.99;fill:none;stroke:#FFFFFF;stroke-width:1.0966;stroke-linecap:round;stroke-linejoin:round;enable-background:new    ;}
	.st3{display:none;fill:none;stroke:#000000;stroke-width:2;stroke-linecap:round;stroke-linejoin:round;}
	.st4{fill:none;stroke:#FFFFFF;stroke-width:2;stroke-linecap:round;stroke-linejoin:round;}
</style>
<g id="layer1" transform="translate(0,-952.36218)">
	<g id="g4646" transform="matrix(2.9999994,0,0,2.9999994,-99.999974,-2004.7238)">
		<path id="path4648" class="st0" d="M63.3,1000.7c0,8.3-6.7,15-15,15s-15-6.7-15-15c0-8.3,6.7-15,15-15S63.3,992.4,63.3,1000.7z"/>
		<path id="path4650" class="st1" d="M42,1006.3c-2.5-3.5-1.8-8.4,1.7-10.9c3.5-2.5,8.4-1.8,10.9,1.7c2,2.7,2,6.5,0,9.2"/>
		<path id="path4652" class="st2" d="M44,1004.6c-1.7-2.3-1.2-5.6,1.2-7.3s5.6-1.2,7.3,1.2c1.3,1.9,1.3,4.4,0,6.2"/>
		<path class="st3" d="M41.7,1001.4c0.6,0.7,1.6,0.9,2.3,0.3c0.1,0,0.1-0.1,0.2-0.2l1-1c0.6-0.7,0.6-1.7,0-2.4
			c-0.6-0.6-1.7-0.6-2.3,0l-0.6,0.6"/>
		<path class="st3" d="M43,1000.7c-0.6-0.7-1.6-0.9-2.3-0.3c-0.1,0-0.1,0.1-0.2,0.2l-1,1c-0.6,0.7-0.6,1.7,0,2.4
			c0.6,0.6,1.7,0.6,2.3,0l0.6-0.6"/>
	</g>
	<path class="st3" d="M25,999.4c1.7,2.2,4.8,2.7,7,1c0.2-0.1,0.4-0.3,0.5-0.5l3-3c1.9-2,1.9-5.2-0.1-7.1c-1.9-1.9-5-1.9-6.9,0
		l-1.7,1.7"/>
	<path class="st3" d="M29,997.4c-1.7-2.2-4.8-2.7-7-1c-0.2,0.1-0.4,0.3-0.5,0.5l-3,3c-1.9,2-1.9,5.2,0.1,7.1c1.9,1.9,5,1.9,6.9,0
		l1.7-1.7"/>
	<path class="st4" d="M43,1009.4c1.7,2.2,4.8,2.7,7,1c0.2-0.1,0.4-0.3,0.5-0.5l3-3c1.9-2,1.9-5.2-0.1-7.1c-1.9-1.9-5-1.9-6.9,0
		l-1.7,1.7"/>
	<path class="st4" d="M47,1007.4c-1.7-2.2-4.8-2.7-7-1c-0.2,0.1-0.4,0.3-0.5,0.5l-3,3c-1.9,2-1.9,5.2,0.1,7.1c1.9,1.9,5,1.9,6.9,0
		l1.7-1.7"/>
</g>
</svg>
