<?xml version="1.0" ?><svg height="100" id="svg2" version="1.1" width="100" xmlns="http://www.w3.org/2000/svg" xmlns:cc="http://creativecommons.org/ns#" xmlns:dc="http://purl.org/dc/elements/1.1/" xmlns:inkscape="http://www.inkscape.org/namespaces/inkscape" xmlns:rdf="http://www.w3.org/1999/02/22-rdf-syntax-ns#" xmlns:sodipodi="http://sodipodi.sourceforge.net/DTD/sodipodi-0.dtd" xmlns:svg="http://www.w3.org/2000/svg"><defs id="defs4"><linearGradient id="linearGradient3941"><stop id="stop3943" offset="0" style="stop-color:#eb707b;stop-opacity:1;"/><stop id="stop3945" offset="1" style="stop-color:#295adb;stop-opacity:0;"/></linearGradient></defs><g id="layer1" transform="translate(0,-952.36218)"><g id="g4646" transform="matrix(2.9999994,0,0,2.9999994,-99.999974,-2004.7238)"><path d="m -635,152.5 c 0,31.75637 -25.74363,57.5 -57.5,57.5 -31.75637,0 -57.5,-25.74363 -57.5,-57.5 0,-31.75637 25.74363,-57.5 57.5,-57.5 31.75637,0 57.5,25.74363 57.5,57.5 z" id="path4648" style="fill:#fb2d47;fill-opacity:1;fill-rule:nonzero;stroke:none" transform="matrix(0.26086963,0,0,0.26086963,230.65222,962.57956)"/><path d="m -718.0379,172.60139 c -11.10169,-14.10419 -8.66768,-34.53759 5.43651,-45.63929 14.10419,-11.10169 34.53759,-8.66768 45.63929,5.43651 8.77211,11.14457 9.30438,26.69054 1.31506,38.409" id="path4650" style="opacity:0.98999999;fill:none;stroke:#ffffff;stroke-width:4.99409342;stroke-linecap:round;stroke-linejoin:round;stroke-miterlimit:4;stroke-opacity:1;stroke-dasharray:none;stroke-dashoffset:0" transform="matrix(0.2401371,0.00839658,-0.00839658,0.2401371,217.52351,972.54605)"/><path d="m 45.707048,1006.2949 c -1.690972,-2.3456 -1.160351,-5.6178 1.185173,-7.30877 2.345525,-1.69097 5.617751,-1.16035 7.308724,1.18517 1.336138,1.8533 1.316156,4.3591 -0.04937,6.1909" id="path4652" style="opacity:0.98999999;fill:none;stroke:#ffffff;stroke-width:1.09660578;stroke-linecap:round;stroke-linejoin:round;stroke-miterlimit:4;stroke-opacity:1;stroke-dasharray:none;stroke-dashoffset:0"/><path d="m 45.542075,1010.5111 0,-1.2602 c 0,-1.1143 3.343457,-2.2289 3.343457,-2.2289 l 0,-1.1143 c -1.114494,-1.1147 -1.114494,-4.458 1.114468,-4.458 2.228962,0 2.228962,3.3433 1.114468,4.458 l 0,1.1143 c 0,0 3.343457,1.1146 3.343457,2.2289 l 0,1.2602 z" id="path4654" style="color:#000000;fill:#ffffff;fill-opacity:1;stroke:#ffffff;stroke-width:0.2;stroke-linecap:round;stroke-linejoin:round;stroke-miterlimit:4;stroke-opacity:1;stroke-dasharray:none;marker:none;visibility:visible;display:inline;overflow:visible;enable-background:accumulate"/></g></g></svg>