<?xml version="1.0" encoding="utf-8"?>
<!-- Generator: Adobe Illustrator 22.1.0, SVG Export Plug-In . SVG Version: 6.00 Build 0)  -->
<svg version="1.1" id="Layer_1" xmlns="http://www.w3.org/2000/svg" xmlns:xlink="http://www.w3.org/1999/xlink" x="0px" y="0px"
	 width="24px" height="21px" viewBox="0 0 24 21" style="enable-background:new 0 0 24 21;" xml:space="preserve">
<style type="text/css">
	.st0{fill:#9AC3F4;}
	.st1{fill:#2F7DED;}
</style>
<title></title>
<g id="cloud_refresh">
	<path class="st0" d="M23.9,7.9C23.3,5.1,20.9,3,18,3l0,0c-0.3,0-0.6,0-0.9,0.1C14.6-0.3,10-1,6.6,1.4C5.3,2.4,4.4,3.7,3.9,5.2
		C1.2,5.8-0.4,8.4,0.1,11c0.5,2.4,2.6,4,5.1,4H18c3.3,0,6-2.7,6-6C24,8.6,24,8.3,23.9,7.9z"/>
	<path class="st1" d="M12,9c-2.8,0-5,2.2-5,5c0,0.9,0.2,1.7,0.7,2.5L9.2,15C9,14.7,9,14.4,9,14c0-1.7,1.3-3,3-3s3,1.3,3,3
		s-1.3,3-3,3v-2l-3,3l3,3v-2c2.8,0,5-2.2,5-5S14.8,9,12,9z"/>
	<path class="st1" d="M23.9,7.9C23.3,5.1,20.9,3,18,3l0,0c-0.3,0-0.6,0-0.9,0.1C14.6-0.3,10-1,6.6,1.4C5.3,2.4,4.4,3.7,3.9,5.2
		c-2.7,0.7-4.3,3.4-3.7,6.1C0.6,13,2,14.3,3.7,14.8c0.5,0.2,1.1-0.1,1.3-0.7c0-0.1,0.1-0.2,0-0.3l0,0c0-0.5-0.3-0.9-0.8-1
		c-1.1-0.3-1.9-1.1-2.2-2.2c-0.2-0.9,0-1.7,0.5-2.4C3.1,7.5,3.9,7.1,4.7,7c0.4,0,0.8-0.3,0.9-0.7c0.7-3,3.6-4.8,6.6-4.2
		c1.5,0.3,2.8,1.3,3.6,2.6c0.2,0.4,0.7,0.6,1.1,0.4C17.2,5.1,17.6,5,18,5c2.2,0,4,1.8,4,4c0,1.6-0.9,3-2.4,3.7
		c-0.4,0.2-0.6,0.5-0.6,0.9l0,0c0,0.6,0.4,1,1,1c0.1,0,0.3,0,0.4-0.1c0.9-0.4,1.6-0.9,2.2-1.7C23.8,11.5,24.2,9.7,23.9,7.9z"/>
</g>
</svg>
