<?xml version="1.0" encoding="utf-8"?>
<!-- Generator: Adobe Illustrator 22.1.0, SVG Export Plug-In . SVG Version: 6.00 Build 0)  -->
<svg version="1.1"
	 id="svg6485" xmlns:cc="http://creativecommons.org/ns#" xmlns:dc="http://purl.org/dc/elements/1.1/" xmlns:inkscape="http://www.inkscape.org/namespaces/inkscape" xmlns:rdf="http://www.w3.org/1999/02/22-rdf-syntax-ns#" xmlns:sodipodi="http://sodipodi.sourceforge.net/DTD/sodipodi-0.dtd" xmlns:svg="http://www.w3.org/2000/svg"
	 xmlns="http://www.w3.org/2000/svg" xmlns:xlink="http://www.w3.org/1999/xlink" x="0px" y="0px" viewBox="0 0 29 11"
	 style="enable-background:new 0 0 29 11;" xml:space="preserve">
<style type="text/css">
	.st0{fill:#323330;}
	.st1{fill:#F0DB4F;}
</style>
<g id="layer1" transform="translate(0,-1004.3622)">
	<g id="g10034" transform="translate(-955.0004,-555.9995)">
		<rect x="962.4" y="1559.9" class="st0" width="12.8" height="12.8"/>
		<path id="path8632" class="st1" d="M957,1560.4c-1.1,0-2,0.9-2,2v7c0,1.1,0.9,2,2,2h25c1.1,0,2-0.9,2-2v-7c0-1.1-0.9-2-2-2H957z
			 M972.3,1562.9c0.4,0,0.8,0.1,1.2,0.3c0.1-0.2,0.2-0.3,0.5-0.3c0.3,0,0.4,0.1,0.4,0.5l0,0.9v0c0,0.4-0.1,0.5-0.5,0.5
			c-0.4,0-0.4-0.2-0.5-0.4c-0.2-0.4-0.5-0.6-1-0.6c-0.6,0-0.9,0.3-0.9,0.7c0,0.5,0.5,0.5,1.5,0.7c1.2,0.2,1.7,0.8,1.7,1.7
			c0,1.1-0.8,1.8-2.3,1.8c-0.5,0-0.9,0-1.4-0.2c-0.1,0.2-0.2,0.2-0.4,0.2c-0.4,0-0.5-0.1-0.5-0.5l0-1.1v0c0-0.4,0.1-0.6,0.5-0.6
			c0.4,0,0.4,0.3,0.6,0.6c0.2,0.5,0.7,0.7,1.3,0.7c0.6,0,0.9-0.2,0.9-0.7c0-0.6-0.5-0.6-1.6-0.9c-1.1-0.3-1.6-0.6-1.6-1.6
			C970.2,1563.7,971.1,1562.9,972.3,1562.9L972.3,1562.9z M966.3,1563.1h2.4c0.4,0,0.6,0.1,0.6,0.5c0,0.4-0.2,0.5-0.6,0.5h-0.4v2.6
			v0.1c0,0.6,0,1-0.4,1.4c-0.3,0.4-0.9,0.6-1.7,0.6c-0.6,0-1.1-0.1-1.6-0.3c-0.2-0.1-0.3-0.2-0.3-0.7v-1c0-0.5,0.1-0.7,0.5-0.7
			c0.5,0,0.4,0.4,0.5,0.8c0.1,0.6,0.2,0.9,0.9,0.9c0.8,0,1-0.4,1-1.3v-2.3h-0.8c-0.4,0-0.6-0.1-0.6-0.5S966,1563.1,966.3,1563.1
			L966.3,1563.1z"/>
	</g>
</g>
</svg>
