<?xml version="1.0" encoding="utf-8"?>
<!-- Generator: Adobe Illustrator 22.1.0, SVG Export Plug-In . SVG Version: 6.00 Build 0)  -->
<svg version="1.1" id="Layer_1" xmlns:sketch="http://www.bohemiancoding.com/sketch/ns"
	 xmlns="http://www.w3.org/2000/svg" xmlns:xlink="http://www.w3.org/1999/xlink" x="0px" y="0px" width="21.1px" height="26px"
	 viewBox="0 0 21.1 26" style="enable-background:new 0 0 21.1 26;" xml:space="preserve">
<style type="text/css">
	.st0{fill:#157EFB;}
</style>
<title></title>
<desc></desc>
<g id="Page-1">
	<g id="icon-24-one-finger-tap">
		<path id="one-finger-tap" class="st0" d="M10.1,5.9c0.6-0.6,1-1.5,1-2.4C11.1,1.6,9.5,0,7.6,0S4.1,1.6,4.1,3.5c0,1,0.4,1.8,1,2.4
			V3.5C5.1,2.1,6.2,1,7.6,1c1.4,0,2.5,1.1,2.5,2.5V5.9L10.1,5.9z M13.1,8.5c0-0.8-0.7-1.5-1.5-1.5c-0.8,0-1.5,0.7-1.5,1.5v1.9V13h-1
			v-2.5v-7C9.1,2.7,8.4,2,7.6,2C6.8,2,6.1,2.7,6.1,3.5v10.3c-2.1-2.2-4.8-4.6-5.9-3.5C-0.9,11.4,2,14.4,5.9,21c1.8,3,4,5,7.8,5
			c4.1,0,7.5-3.4,7.5-7.5v-3.3v-4.7c0-0.8-0.7-1.5-1.5-1.5c-0.8,0-1.5,0.7-1.5,1.5v2.2V13h-1v-2.3V9.5c0-0.8-0.7-1.5-1.5-1.5
			c-0.8,0-1.5,0.7-1.5,1.5v1V12h-1v-1.5V8.5L13.1,8.5z"/>
	</g>
</g>
</svg>
